%
M48
M72
T01C0.0130
%
T01
X9802Y16643
X10177Y16643
X10365Y17018
X9677Y17768
X9427Y17518
X9052Y18268
X9427Y19081
X9802Y19143
X10052Y18893
X10552Y19143
X10927Y19268
X10927Y18893
X11427Y19893
X11802Y19768
X11802Y20143
X10927Y20362
X8833Y20112
X8271Y20268
X8271Y20768
X7583Y20393
X7208Y20393
X6833Y20393
X6802Y21393
X7240Y21393
X7677Y21393
X8408Y23018
X8408Y23393
X8408Y23768
X9302Y23518
X9552Y24018
X9802Y23768
X10052Y24018
X10302Y23768
X10552Y24018
X15302Y30643
X15677Y30643
X15927Y30393
X15302Y31018
X16802Y32018
X17177Y32018
X17552Y32018
X18052Y32018
X17177Y32393
X16802Y32393
X16052Y32768
X16052Y33643
X17115Y35206
X17052Y35643
X17802Y35518
X17646Y36393
X17802Y36893
X17177Y38268
X17427Y38518
X18177Y38518
X18677Y38518
X18677Y39643
X18927Y39893
X19427Y40768
X19802Y41143
X20177Y41268
X20427Y40893
X20052Y40518
X21177Y40268
X22677Y40518
X23177Y41643
X22240Y41768
X21740Y41831
X20677Y42393
X20302Y41893
X21177Y43143
X21802Y44393
X19927Y44143
X18927Y43456
X18177Y43143
X18427Y44393
X17083Y43925
X16927Y43456
X16677Y44393
X17052Y42018
X16302Y40768
X15552Y39893
X16052Y39518
X15796Y39274
X14552Y40518
X13302Y39893
X12927Y39893
X11677Y39893
X11302Y39893
X11052Y39393
X9490Y40175
X9552Y40581
X9552Y42143
X8177Y42393
X7802Y41268
X7302Y41018
X6927Y41143
X7427Y40175
X8427Y44018
X12927Y45018
X17677Y39893
X17927Y39393
X18802Y42018
X21177Y38268
X20927Y38018
X21177Y37768
X20927Y37518
X20927Y36018
X21302Y35987
X21552Y35987
X21927Y36018
X22302Y36018
X20427Y35393
X20427Y34143
X20427Y32893
X20552Y32018
X20552Y31643
X20552Y31268
X20552Y30893
X19927Y30393
X19677Y30143
X19427Y29893
X19302Y29268
X19552Y29268
X18427Y30268
X18177Y30518
X17927Y30768
X17865Y33706
X17865Y34081
X21552Y32393
X21677Y31768
X22052Y31518
X22802Y31518
X23552Y31518
X23552Y31768
X23177Y32393
X22802Y30518
X21927Y29143
X26427Y23768
X28177Y23268
X29271Y22784
X29087Y22359
X29480Y22359
X29480Y21965
X29087Y21965
X29087Y21571
X29087Y21178
X29480Y21178
X29480Y21571
X29874Y21571
X29874Y21178
X30268Y21178
X30268Y21571
X30268Y21965
X30268Y22359
X29874Y22359
X29874Y21965
X29771Y22784
X30474Y22784
X30693Y22268
X31802Y22050
X30677Y20753
X31115Y20268
X30646Y19831
X31568Y18893
X32427Y17393
X34052Y20768
X33427Y24393
X32427Y24878
X31990Y24862
X32552Y25768
X32927Y25768
X32552Y26143
X33677Y26018
X33927Y26268
X33677Y26518
X34302Y26768
X34052Y27268
X33802Y27768
X33927Y28268
X34927Y29393
X35052Y30018
X35708Y30206
X36052Y30268
X36224Y29675
X35740Y29643
X36271Y29112
X35708Y29018
X35740Y28643
X36927Y28393
X37052Y28018
X37302Y27768
X37302Y27393
X37052Y27143
X36927Y26768
X37552Y26268
X37177Y25393
X36115Y25456
X36177Y26050
X35927Y26302
X36177Y26768
X35052Y26018
X34615Y25456
X34800Y25175
X37677Y22643
X37802Y23268
X37427Y28643
X30365Y24518
X30583Y24143
X30146Y23768
X29552Y25143
X28927Y25143
X28662Y21768
X28662Y21393
X28677Y20768
X27829Y21773
X27427Y21768
X25552Y21768
X23677Y20018
X28677Y17487
X28052Y34393
X25240Y39643
X26115Y40393
X26177Y42143
X24802Y42393
X24427Y41143
X23927Y40768
X24052Y39893
X23677Y39518
X25052Y44018
X11677Y34518
X11677Y33643
X11177Y33143
X10927Y35143
X8177Y16925
X7865Y16925
X7552Y16927
X42927Y42393
X44302Y42143
X43177Y44018
M30
