G75*
%MOIN*%
%OFA0B0*%
%FSLAX25Y25*%
%IPPOS*%
%LPD*%
%AMOC8*
5,1,8,0,0,1.08239X$1,22.5*
%
%ADD10R,0.06299X0.05118*%
%ADD11R,0.04252X0.04134*%
%ADD12R,0.05118X0.06299*%
%ADD13R,0.03937X0.04331*%
%ADD14R,0.04331X0.03937*%
%ADD15R,0.04134X0.04252*%
%ADD16R,0.06299X0.03150*%
%ADD17R,0.02165X0.02362*%
%ADD18R,0.05512X0.03937*%
%ADD19R,0.03937X0.05512*%
%ADD20R,0.05315X0.11024*%
%ADD21R,0.04600X0.06300*%
%ADD22R,0.06300X0.04600*%
%ADD23C,0.00700*%
%ADD24R,0.01181X0.03543*%
%ADD25C,0.00551*%
%ADD26R,0.01752X0.00551*%
%ADD27R,0.00906X0.02244*%
%ADD28C,0.00906*%
%ADD29R,0.02244X0.00906*%
%ADD30R,0.16142X0.16142*%
%ADD31R,0.03937X0.13780*%
%ADD32R,0.05000X0.10000*%
%ADD33R,0.01575X0.03937*%
%ADD34C,0.00906*%
%ADD35R,0.02500X0.00906*%
%ADD36R,0.13780X0.03937*%
%ADD37R,0.01200X0.03900*%
%ADD38R,0.02756X0.00984*%
%ADD39R,0.02600X0.02600*%
%ADD40R,0.07098X0.06299*%
%ADD41R,0.03900X0.01200*%
%ADD42R,0.03150X0.06299*%
%ADD43R,0.06299X0.07098*%
%ADD44R,0.02362X0.03543*%
%ADD45R,0.12402X0.06614*%
%ADD46R,0.02559X0.00906*%
%ADD47R,0.02165X0.00906*%
%ADD48R,0.02953X0.01181*%
%ADD49R,0.19685X0.19685*%
%ADD50C,0.01102*%
%ADD51R,0.05512X0.02756*%
%ADD52R,0.03150X0.05315*%
%ADD53R,0.07480X0.05315*%
%ADD54R,0.03150X0.02362*%
%ADD55R,0.10000X0.05000*%
%ADD56R,0.05118X0.04134*%
D10*
X0099272Y0216246D03*
X0099272Y0224120D03*
X0246772Y0388746D03*
X0246772Y0396620D03*
X0255522Y0418746D03*
X0255522Y0426620D03*
X0196772Y0426620D03*
X0196772Y0418746D03*
X0145522Y0427496D03*
X0145522Y0435370D03*
X0089272Y0426620D03*
X0089272Y0418746D03*
X0069272Y0405370D03*
X0069272Y0397496D03*
X0261772Y0217870D03*
X0261772Y0209996D03*
X0287397Y0236246D03*
X0287397Y0244120D03*
X0296147Y0246620D03*
X0296147Y0238746D03*
X0303647Y0250933D03*
X0311147Y0250682D03*
X0303647Y0258807D03*
X0311147Y0242808D03*
X0333647Y0209432D03*
X0333647Y0201558D03*
X0305209Y0193495D03*
X0305209Y0185621D03*
X0294272Y0185621D03*
X0294272Y0193495D03*
X0355522Y0241246D03*
X0363022Y0241246D03*
X0363022Y0249120D03*
X0355522Y0249120D03*
X0371772Y0249120D03*
X0371772Y0241246D03*
X0380522Y0241246D03*
X0380522Y0249120D03*
X0436772Y0418746D03*
X0436772Y0426620D03*
D11*
X0284272Y0197378D03*
X0284272Y0190488D03*
X0291147Y0174878D03*
X0291147Y0167988D03*
X0308647Y0167988D03*
X0308647Y0174878D03*
X0188022Y0404238D03*
X0188022Y0411128D03*
X0166772Y0411128D03*
X0166772Y0404238D03*
D12*
X0211585Y0423933D03*
X0219459Y0423933D03*
X0252835Y0411433D03*
X0260709Y0411433D03*
X0220709Y0365183D03*
X0212835Y0365183D03*
X0215335Y0355183D03*
X0215335Y0347683D03*
X0223209Y0347683D03*
X0223209Y0355183D03*
G36*
X0164973Y0350185D02*
X0168592Y0346566D01*
X0164139Y0342113D01*
X0160520Y0345732D01*
X0164973Y0350185D01*
G37*
G36*
X0159405Y0355753D02*
X0163024Y0352134D01*
X0158571Y0347681D01*
X0154952Y0351300D01*
X0159405Y0355753D01*
G37*
X0129459Y0350183D03*
X0121585Y0350183D03*
X0094459Y0411433D03*
X0086585Y0411433D03*
X0084085Y0223933D03*
X0091959Y0223933D03*
X0101585Y0207683D03*
X0109459Y0207683D03*
X0261585Y0182683D03*
X0269459Y0182683D03*
X0269085Y0212370D03*
X0276959Y0212370D03*
X0271959Y0224245D03*
X0271959Y0231433D03*
X0264085Y0231433D03*
X0264085Y0224245D03*
X0323147Y0222058D03*
X0323147Y0229245D03*
X0323147Y0236433D03*
X0331021Y0236433D03*
X0331021Y0229245D03*
X0331021Y0222058D03*
X0362835Y0223933D03*
X0370709Y0223933D03*
X0370709Y0232683D03*
X0362835Y0232683D03*
X0434085Y0411433D03*
X0441959Y0411433D03*
D13*
X0444675Y0426433D03*
X0451368Y0426433D03*
X0346368Y0247370D03*
X0346368Y0242370D03*
X0339675Y0242370D03*
X0339675Y0247370D03*
X0308868Y0180183D03*
X0302175Y0180183D03*
X0297618Y0180183D03*
X0290925Y0180183D03*
X0215118Y0295183D03*
X0208425Y0295183D03*
G36*
X0165810Y0317410D02*
X0163027Y0314627D01*
X0159966Y0317688D01*
X0162749Y0320471D01*
X0165810Y0317410D01*
G37*
G36*
X0161077Y0312677D02*
X0158294Y0309894D01*
X0155233Y0312955D01*
X0158016Y0315738D01*
X0161077Y0312677D01*
G37*
X0106368Y0393933D03*
X0099675Y0393933D03*
X0097175Y0426433D03*
X0103868Y0426433D03*
X0263425Y0426433D03*
X0270118Y0426433D03*
X0074493Y0199558D03*
X0067800Y0199558D03*
X0089272Y0194779D03*
X0089272Y0188086D03*
D14*
X0085512Y0167070D03*
X0092205Y0167070D03*
X0091863Y0171745D03*
X0098556Y0171745D03*
X0094272Y0188086D03*
X0094272Y0194779D03*
X0084272Y0194779D03*
X0079272Y0194779D03*
X0079272Y0188086D03*
X0084272Y0188086D03*
X0297397Y0174779D03*
X0302397Y0174779D03*
X0302397Y0168086D03*
X0297397Y0168086D03*
X0239272Y0416836D03*
X0239272Y0423529D03*
X0073022Y0423529D03*
X0073022Y0416836D03*
X0420522Y0416836D03*
X0420522Y0423529D03*
D15*
X0328342Y0193933D03*
X0321452Y0193933D03*
X0106467Y0400183D03*
X0099577Y0400183D03*
D16*
X0263829Y0190183D03*
X0277215Y0190183D03*
X0317579Y0216433D03*
X0330965Y0216433D03*
D17*
X0097601Y0202683D03*
X0090317Y0205242D03*
X0090317Y0200124D03*
D18*
X0311816Y0192673D03*
X0311816Y0185193D03*
X0320477Y0188933D03*
D19*
G36*
X0288319Y0179833D02*
X0285536Y0177050D01*
X0281639Y0180947D01*
X0284422Y0183730D01*
X0288319Y0179833D01*
G37*
G36*
X0283029Y0174544D02*
X0280246Y0171761D01*
X0276349Y0175658D01*
X0279132Y0178441D01*
X0283029Y0174544D01*
G37*
G36*
X0279549Y0183313D02*
X0276766Y0180530D01*
X0272869Y0184427D01*
X0275652Y0187210D01*
X0279549Y0183313D01*
G37*
D20*
X0276132Y0200183D03*
X0264911Y0200183D03*
D21*
G36*
X0270299Y0169701D02*
X0267047Y0172953D01*
X0271501Y0177407D01*
X0274753Y0174155D01*
X0270299Y0169701D01*
G37*
G36*
X0274542Y0165458D02*
X0271290Y0168710D01*
X0275744Y0173164D01*
X0278996Y0169912D01*
X0274542Y0165458D01*
G37*
X0323772Y0243620D03*
X0329772Y0243620D03*
X0297272Y0257683D03*
X0291272Y0257683D03*
X0372522Y0292683D03*
X0372522Y0300183D03*
X0378522Y0300183D03*
X0378522Y0292683D03*
X0378522Y0307683D03*
X0372522Y0307683D03*
G36*
X0171496Y0311703D02*
X0168244Y0308451D01*
X0163790Y0312905D01*
X0167042Y0316157D01*
X0171496Y0311703D01*
G37*
G36*
X0167253Y0307460D02*
X0164001Y0304208D01*
X0159547Y0308662D01*
X0162799Y0311914D01*
X0167253Y0307460D01*
G37*
D22*
X0277709Y0243495D03*
X0277709Y0237495D03*
X0315522Y0179433D03*
X0315522Y0173433D03*
D23*
X0067372Y0173333D02*
X0067372Y0167033D01*
X0067372Y0173333D02*
X0073672Y0173333D01*
X0073672Y0167033D01*
X0067372Y0167033D01*
X0067372Y0167732D02*
X0073672Y0167732D01*
X0073672Y0168431D02*
X0067372Y0168431D01*
X0067372Y0169130D02*
X0073672Y0169130D01*
X0073672Y0169829D02*
X0067372Y0169829D01*
X0067372Y0170528D02*
X0073672Y0170528D01*
X0073672Y0171227D02*
X0067372Y0171227D01*
X0067372Y0171926D02*
X0073672Y0171926D01*
X0073672Y0172625D02*
X0067372Y0172625D01*
X0067372Y0173324D02*
X0073672Y0173324D01*
X0067372Y0177033D02*
X0067372Y0183333D01*
X0073672Y0183333D01*
X0073672Y0177033D01*
X0067372Y0177033D01*
X0067372Y0177732D02*
X0073672Y0177732D01*
X0073672Y0178431D02*
X0067372Y0178431D01*
X0067372Y0179130D02*
X0073672Y0179130D01*
X0073672Y0179829D02*
X0067372Y0179829D01*
X0067372Y0180528D02*
X0073672Y0180528D01*
X0073672Y0181227D02*
X0067372Y0181227D01*
X0067372Y0181926D02*
X0073672Y0181926D01*
X0073672Y0182625D02*
X0067372Y0182625D01*
X0067372Y0183324D02*
X0073672Y0183324D01*
X0067372Y0187033D02*
X0067372Y0193333D01*
X0073672Y0193333D01*
X0073672Y0187033D01*
X0067372Y0187033D01*
X0067372Y0187732D02*
X0073672Y0187732D01*
X0073672Y0188431D02*
X0067372Y0188431D01*
X0067372Y0189130D02*
X0073672Y0189130D01*
X0073672Y0189829D02*
X0067372Y0189829D01*
X0067372Y0190528D02*
X0073672Y0190528D01*
X0073672Y0191227D02*
X0067372Y0191227D01*
X0067372Y0191926D02*
X0073672Y0191926D01*
X0073672Y0192625D02*
X0067372Y0192625D01*
X0067372Y0193324D02*
X0073672Y0193324D01*
D24*
X0083858Y0176757D03*
D25*
X0080748Y0176757D03*
X0080748Y0175183D03*
X0080748Y0173608D03*
X0080748Y0178332D03*
X0080748Y0179907D03*
X0086969Y0179907D03*
X0086969Y0178332D03*
X0086969Y0176757D03*
X0086969Y0175183D03*
X0086969Y0173608D03*
D26*
X0087844Y0173608D03*
X0087844Y0175183D03*
X0087844Y0176757D03*
X0087844Y0178332D03*
X0087844Y0179907D03*
X0079872Y0179907D03*
X0079872Y0178332D03*
X0079872Y0176757D03*
X0079872Y0175183D03*
X0079872Y0173608D03*
D27*
X0285945Y0203726D03*
X0287913Y0203726D03*
X0289882Y0203726D03*
X0291850Y0203726D03*
X0293819Y0203726D03*
X0295787Y0203726D03*
X0297756Y0203726D03*
X0299724Y0203726D03*
X0301693Y0203726D03*
X0303661Y0203726D03*
X0305630Y0203726D03*
X0307598Y0203726D03*
X0307598Y0231639D03*
X0305630Y0231639D03*
X0303661Y0231639D03*
X0301693Y0231639D03*
X0299724Y0231639D03*
X0297756Y0231639D03*
X0295787Y0231639D03*
X0293819Y0231639D03*
X0291850Y0231639D03*
X0289882Y0231639D03*
X0287913Y0231639D03*
X0285945Y0231639D03*
D28*
X0285945Y0230517D01*
X0287913Y0230517D02*
X0287913Y0231639D01*
X0289882Y0231639D02*
X0289882Y0230517D01*
X0291850Y0230517D02*
X0291850Y0231639D01*
X0293819Y0231639D02*
X0293819Y0230517D01*
X0295787Y0230517D02*
X0295787Y0231639D01*
X0297756Y0231639D02*
X0297756Y0230517D01*
X0299724Y0230517D02*
X0299724Y0231639D01*
X0301693Y0231639D02*
X0301693Y0230517D01*
X0303661Y0230517D02*
X0303661Y0231639D01*
X0305630Y0231639D02*
X0305630Y0230517D01*
X0307598Y0230517D02*
X0307598Y0231639D01*
X0309606Y0228509D02*
X0310728Y0228509D01*
X0310728Y0226541D02*
X0309606Y0226541D01*
X0309606Y0224572D02*
X0310728Y0224572D01*
X0310728Y0222604D02*
X0309606Y0222604D01*
X0309606Y0220635D02*
X0310728Y0220635D01*
X0310728Y0218667D02*
X0309606Y0218667D01*
X0309606Y0216698D02*
X0310728Y0216698D01*
X0310728Y0214730D02*
X0309606Y0214730D01*
X0309606Y0212761D02*
X0310728Y0212761D01*
X0310728Y0210793D02*
X0309606Y0210793D01*
X0309606Y0208824D02*
X0310728Y0208824D01*
X0310728Y0206856D02*
X0309606Y0206856D01*
X0307598Y0204848D02*
X0307598Y0203726D01*
X0305630Y0203726D02*
X0305630Y0204848D01*
X0303661Y0204848D02*
X0303661Y0203726D01*
X0301693Y0203726D02*
X0301693Y0204848D01*
X0299724Y0204848D02*
X0299724Y0203726D01*
X0297756Y0203726D02*
X0297756Y0204848D01*
X0295787Y0204848D02*
X0295787Y0203726D01*
X0293819Y0203726D02*
X0293819Y0204848D01*
X0291850Y0204848D02*
X0291850Y0203726D01*
X0289882Y0203726D02*
X0289882Y0204848D01*
X0287913Y0204848D02*
X0287913Y0203726D01*
X0285945Y0203726D02*
X0285945Y0204848D01*
X0283937Y0206856D02*
X0282815Y0206856D01*
X0282815Y0208824D02*
X0283937Y0208824D01*
X0283937Y0210793D02*
X0282815Y0210793D01*
X0282815Y0212761D02*
X0283937Y0212761D01*
X0283937Y0214730D02*
X0282815Y0214730D01*
X0282815Y0216698D02*
X0283937Y0216698D01*
X0283937Y0218667D02*
X0282815Y0218667D01*
X0282815Y0220635D02*
X0283937Y0220635D01*
X0283937Y0222604D02*
X0282815Y0222604D01*
X0282815Y0224572D02*
X0283937Y0224572D01*
X0283937Y0226541D02*
X0282815Y0226541D01*
X0282815Y0228509D02*
X0283937Y0228509D01*
D29*
X0282815Y0228509D03*
X0282815Y0226541D03*
X0282815Y0224572D03*
X0282815Y0222604D03*
X0282815Y0220635D03*
X0282815Y0218667D03*
X0282815Y0216698D03*
X0282815Y0214730D03*
X0282815Y0212761D03*
X0282815Y0210793D03*
X0282815Y0208824D03*
X0282815Y0206856D03*
X0310728Y0206856D03*
X0310728Y0208824D03*
X0310728Y0210793D03*
X0310728Y0212761D03*
X0310728Y0214730D03*
X0310728Y0216698D03*
X0310728Y0218667D03*
X0310728Y0220635D03*
X0310728Y0222604D03*
X0310728Y0224572D03*
X0310728Y0226541D03*
X0310728Y0228509D03*
D30*
X0296772Y0217683D03*
D31*
X0316260Y0205183D03*
X0327283Y0205183D03*
D32*
X0255522Y0315183D03*
X0255522Y0445183D03*
X0265522Y0445183D03*
X0099272Y0445183D03*
X0089272Y0445183D03*
X0109272Y0170183D03*
X0115522Y0170183D03*
X0121772Y0170183D03*
X0128022Y0170183D03*
X0436772Y0445183D03*
X0446772Y0445183D03*
D33*
X0088022Y0213933D03*
D34*
X0092018Y0213933D03*
X0092018Y0215901D03*
X0092018Y0217870D03*
X0092018Y0211964D03*
X0092018Y0209996D03*
X0084026Y0209996D03*
X0084026Y0211964D03*
X0084026Y0213933D03*
X0084026Y0215901D03*
X0084026Y0217870D03*
D35*
X0082776Y0217870D03*
X0082776Y0215901D03*
X0082776Y0213933D03*
X0082776Y0211964D03*
X0082776Y0209996D03*
X0093268Y0209996D03*
X0093268Y0211964D03*
X0093268Y0213933D03*
X0093268Y0215901D03*
X0093268Y0217870D03*
D36*
X0073022Y0219444D03*
X0073022Y0208421D03*
D37*
X0152844Y0416195D03*
X0155404Y0416195D03*
X0157963Y0416195D03*
X0160522Y0416195D03*
X0163081Y0416195D03*
X0165640Y0416195D03*
X0168199Y0416195D03*
X0174094Y0416195D03*
X0176654Y0416195D03*
X0179213Y0416195D03*
X0181772Y0416195D03*
X0184331Y0416195D03*
X0186890Y0416195D03*
X0189449Y0416195D03*
X0189449Y0439170D03*
X0186890Y0439170D03*
X0184331Y0439170D03*
X0181772Y0439170D03*
X0179213Y0439170D03*
X0176654Y0439170D03*
X0174094Y0439170D03*
X0168199Y0439170D03*
X0165640Y0439170D03*
X0163081Y0439170D03*
X0160522Y0439170D03*
X0157963Y0439170D03*
X0155404Y0439170D03*
X0152844Y0439170D03*
D38*
X0100177Y0438135D03*
X0100177Y0436167D03*
X0100177Y0434198D03*
X0100177Y0432230D03*
X0088366Y0432230D03*
X0088366Y0434198D03*
X0088366Y0436167D03*
X0088366Y0438135D03*
X0090177Y0405635D03*
X0090177Y0403667D03*
X0090177Y0401698D03*
X0090177Y0399730D03*
X0078366Y0399730D03*
X0078366Y0401698D03*
X0078366Y0403667D03*
X0078366Y0405635D03*
X0244616Y0404917D03*
X0244616Y0406885D03*
X0244616Y0402948D03*
X0244616Y0400980D03*
X0256427Y0400980D03*
X0256427Y0402948D03*
X0256427Y0404917D03*
X0256427Y0406885D03*
X0254616Y0432230D03*
X0254616Y0434198D03*
X0254616Y0436167D03*
X0254616Y0438135D03*
X0266427Y0438135D03*
X0266427Y0436167D03*
X0266427Y0434198D03*
X0266427Y0432230D03*
X0435866Y0432230D03*
X0435866Y0434198D03*
X0435866Y0436167D03*
X0435866Y0438135D03*
X0447677Y0438135D03*
X0447677Y0436167D03*
X0447677Y0434198D03*
X0447677Y0432230D03*
D39*
X0441772Y0435183D03*
X0260522Y0435183D03*
X0250522Y0403933D03*
X0094272Y0435183D03*
X0084272Y0402683D03*
D40*
X0101772Y0407084D03*
X0101772Y0418281D03*
X0073022Y0430834D03*
X0073022Y0442031D03*
X0239272Y0442031D03*
X0239272Y0430834D03*
X0268022Y0418281D03*
X0268022Y0407084D03*
X0420522Y0430834D03*
X0420522Y0442031D03*
X0449272Y0418281D03*
X0449272Y0407084D03*
D41*
X0227009Y0428726D03*
X0227009Y0431285D03*
X0227009Y0433844D03*
X0227009Y0436403D03*
X0227009Y0438962D03*
X0227009Y0441521D03*
X0227009Y0444080D03*
X0227009Y0446639D03*
X0204034Y0446639D03*
X0204034Y0444080D03*
X0204034Y0441521D03*
X0204034Y0438962D03*
X0204034Y0436403D03*
X0204034Y0433844D03*
X0204034Y0431285D03*
X0204034Y0428726D03*
D42*
X0219272Y0410626D03*
X0225522Y0410626D03*
X0231772Y0410626D03*
X0231772Y0397240D03*
X0225522Y0397240D03*
X0219272Y0397240D03*
X0248022Y0417240D03*
X0248022Y0430626D03*
X0173022Y0409376D03*
X0173022Y0395990D03*
X0151772Y0395990D03*
X0151772Y0409376D03*
X0081772Y0417240D03*
X0081772Y0430626D03*
X0429272Y0430626D03*
X0429272Y0417240D03*
D43*
X0089870Y0393933D03*
X0078673Y0393933D03*
D44*
X0114281Y0194710D03*
X0118022Y0194710D03*
X0121762Y0194710D03*
X0121762Y0185655D03*
X0118022Y0185655D03*
X0114281Y0185655D03*
D45*
X0105522Y0179523D03*
X0105522Y0198342D03*
D46*
X0365846Y0260655D03*
X0365846Y0263017D03*
X0365846Y0265380D03*
X0365846Y0267742D03*
X0365846Y0270104D03*
X0365846Y0272466D03*
X0365846Y0274828D03*
X0365846Y0277191D03*
X0365846Y0279553D03*
X0365846Y0281915D03*
X0365846Y0284277D03*
X0365846Y0286639D03*
X0365846Y0289002D03*
X0365846Y0291364D03*
X0365846Y0293726D03*
X0365846Y0296088D03*
X0365846Y0298450D03*
X0365846Y0300813D03*
X0365846Y0303175D03*
D47*
X0354035Y0301994D03*
X0354035Y0299631D03*
X0354035Y0297269D03*
X0354035Y0294907D03*
X0354035Y0292545D03*
X0354035Y0290183D03*
X0354035Y0287820D03*
X0354035Y0285458D03*
X0354035Y0283096D03*
X0354035Y0280734D03*
X0354035Y0278372D03*
X0354035Y0276009D03*
X0354035Y0273647D03*
X0354035Y0271285D03*
X0354035Y0268923D03*
X0354035Y0266561D03*
X0354035Y0264198D03*
X0354035Y0261836D03*
D48*
X0365157Y0257702D03*
X0365157Y0306128D03*
D49*
X0191772Y0341433D03*
D50*
X0207864Y0342417D02*
X0210010Y0342417D01*
X0210010Y0344385D02*
X0207864Y0344385D01*
X0207864Y0346354D02*
X0210010Y0346354D01*
X0210010Y0348322D02*
X0207864Y0348322D01*
X0207864Y0350291D02*
X0210010Y0350291D01*
X0210010Y0352259D02*
X0207864Y0352259D01*
X0207864Y0354228D02*
X0210010Y0354228D01*
X0210010Y0356196D02*
X0207864Y0356196D01*
X0206535Y0357525D02*
X0206535Y0359671D01*
X0204567Y0359671D02*
X0204567Y0357525D01*
X0202598Y0357525D02*
X0202598Y0359671D01*
X0200630Y0359671D02*
X0200630Y0357525D01*
X0198661Y0357525D02*
X0198661Y0359671D01*
X0196693Y0359671D02*
X0196693Y0357525D01*
X0194724Y0357525D02*
X0194724Y0359671D01*
X0192756Y0359671D02*
X0192756Y0357525D01*
X0190787Y0357525D02*
X0190787Y0359671D01*
X0188819Y0359671D02*
X0188819Y0357525D01*
X0186850Y0357525D02*
X0186850Y0359671D01*
X0184882Y0359671D02*
X0184882Y0357525D01*
X0182913Y0357525D02*
X0182913Y0359671D01*
X0180945Y0359671D02*
X0180945Y0357525D01*
X0178976Y0357525D02*
X0178976Y0359671D01*
X0177008Y0359671D02*
X0177008Y0357525D01*
X0175679Y0356196D02*
X0173533Y0356196D01*
X0173533Y0354228D02*
X0175679Y0354228D01*
X0175679Y0352259D02*
X0173533Y0352259D01*
X0173533Y0350291D02*
X0175679Y0350291D01*
X0175679Y0348322D02*
X0173533Y0348322D01*
X0173533Y0346354D02*
X0175679Y0346354D01*
X0175679Y0344385D02*
X0173533Y0344385D01*
X0173533Y0342417D02*
X0175679Y0342417D01*
X0175679Y0340448D02*
X0173533Y0340448D01*
X0173533Y0338480D02*
X0175679Y0338480D01*
X0175679Y0336511D02*
X0173533Y0336511D01*
X0173533Y0334543D02*
X0175679Y0334543D01*
X0175679Y0332574D02*
X0173533Y0332574D01*
X0173533Y0330606D02*
X0175679Y0330606D01*
X0175679Y0328637D02*
X0173533Y0328637D01*
X0173533Y0326669D02*
X0175679Y0326669D01*
X0177008Y0325340D02*
X0177008Y0323194D01*
X0178976Y0323194D02*
X0178976Y0325340D01*
X0180945Y0325340D02*
X0180945Y0323194D01*
X0182913Y0323194D02*
X0182913Y0325340D01*
X0184882Y0325340D02*
X0184882Y0323194D01*
X0186850Y0323194D02*
X0186850Y0325340D01*
X0188819Y0325340D02*
X0188819Y0323194D01*
X0190787Y0323194D02*
X0190787Y0325340D01*
X0192756Y0325340D02*
X0192756Y0323194D01*
X0194724Y0323194D02*
X0194724Y0325340D01*
X0196693Y0325340D02*
X0196693Y0323194D01*
X0198661Y0323194D02*
X0198661Y0325340D01*
X0200630Y0325340D02*
X0200630Y0323194D01*
X0202598Y0323194D02*
X0202598Y0325340D01*
X0204567Y0325340D02*
X0204567Y0323194D01*
X0206535Y0323194D02*
X0206535Y0325340D01*
X0207864Y0326669D02*
X0210010Y0326669D01*
X0210010Y0328637D02*
X0207864Y0328637D01*
X0207864Y0330606D02*
X0210010Y0330606D01*
X0210010Y0332574D02*
X0207864Y0332574D01*
X0207864Y0334543D02*
X0210010Y0334543D01*
X0210010Y0336511D02*
X0207864Y0336511D01*
X0207864Y0338480D02*
X0210010Y0338480D01*
X0210010Y0340448D02*
X0207864Y0340448D01*
D51*
X0103022Y0339208D03*
X0103022Y0334878D03*
X0103022Y0330547D03*
X0103022Y0326216D03*
X0103022Y0343539D03*
X0103022Y0347870D03*
X0103022Y0352200D03*
X0103022Y0356531D03*
D52*
X0119951Y0371000D03*
X0073888Y0316866D03*
D53*
X0080581Y0316866D03*
X0113258Y0316866D03*
X0113258Y0371000D03*
X0080581Y0371000D03*
D54*
X0085859Y0205242D03*
X0085859Y0200124D03*
X0079560Y0202683D03*
D55*
X0224272Y0310183D03*
X0224272Y0320183D03*
D56*
G36*
X0195464Y0311369D02*
X0199082Y0307751D01*
X0196158Y0304827D01*
X0192540Y0308445D01*
X0195464Y0311369D01*
G37*
G36*
X0189339Y0317493D02*
X0192957Y0313875D01*
X0190033Y0310951D01*
X0186415Y0314569D01*
X0189339Y0317493D01*
G37*
G36*
X0184885Y0313039D02*
X0188503Y0309421D01*
X0185579Y0306497D01*
X0181961Y0310115D01*
X0184885Y0313039D01*
G37*
G36*
X0191010Y0306914D02*
X0194628Y0303296D01*
X0191704Y0300372D01*
X0188086Y0303990D01*
X0191010Y0306914D01*
G37*
M02*
